IKResults-ET1
version=1
nRows=9
nColumns=24
inDegrees=yes

Units are S.I. units (second, meters, Newtons, ...)
If the header above contains a line with 'inDegrees', this indicates whether rotational values are in degrees (yes) or radians (no).

endheader
time	pelvis_tilt	pelvis_list	pelvis_rotation	pelvis_tx	pelvis_ty	pelvis_tz	hip_flexion_r	hip_adduction_r	hip_rotation_r	knee_angle_r	ankle_angle_r	subtalar_angle_r	mtp_angle_r	hip_flexion_l	hip_adduction_l	hip_rotation_l	knee_angle_l	ankle_angle_l	subtalar_angle_l	mtp_angle_l	lumbar_extension	lumbar_bending	lumbar_rotation
      5.18000000	      1.28652746	     -5.37381447	    187.71144002	      1.22366421	      0.99157859	     -0.05684244	     33.60354251	     -7.35972217	     -0.58332847	    -15.06958702	     15.31172824	      0.76198041	      0.00000000	     -8.47298665	      9.47956485	      9.73312748	    -14.48080389	     19.66141390	     10.46204404	      0.00000000	    -16.30695983	     -8.22535750	     -7.66651266
      5.19000000	      1.69038731	     -5.28195648	    188.06511382	      1.20845288	      0.98916217	     -0.05660574	     33.78333210	     -7.28949936	     -0.75807354	    -12.45655642	     15.69604097	      1.03861035	      0.00000000	     -8.83202777	      9.23178763	      9.83884961	    -14.81907430	     19.94516211	     10.90758490	      0.00000000	    -15.91141436	     -8.18648110	     -7.83567062
      5.20000000	      2.03209836	     -5.16856232	    188.41543799	      1.19305041	      0.98674414	     -0.05659180	     33.89109988	     -7.13939773	     -1.07721701	    -10.28995052	     16.02686981	      0.98195792	      0.00000000	     -9.21500516	      8.93848503	      9.92002391	    -15.24035114	     20.15151192	     11.14109979	      0.00000000	    -15.59199429	     -8.11526899	     -7.93075830
      5.21000000	      2.35838525	     -5.09363000	    188.75793177	      1.17747424	      0.98427575	     -0.05668852	     34.03763053	     -7.00972504	     -1.66450377	     -8.77725893	     16.39897350	      1.04784636	      0.00000000	     -9.57727730	      8.67414716	     10.01100524	    -15.70555645	     20.29285464	     11.66185676	      0.00000000	    -15.27292085	     -8.12336659	     -8.08233605
      5.22000000	      2.60387844	     -4.99903741	    189.08943207	      1.16166502	      0.98184247	     -0.05700154	     34.13299360	     -6.80623882	     -2.27760443	     -7.99115527	     16.80343878	      1.22594875	      0.00000000	     -9.95133783	      8.35336334	     10.04357348	    -16.36134511	     20.50559613	     12.08514286	      0.00000000	    -15.04233039	     -8.09565399	     -8.20746620
      5.23000000	      2.81312585	     -4.95067309	    189.42161763	      1.14567041	      0.97943745	     -0.05720551	     34.23181018	     -6.67557965	     -2.96473370	     -7.94595901	     17.14637834	      2.52108351	      0.00000000	    -10.28823023	      8.06884042	     10.08279867	    -17.16771755	     20.53848534	     12.74095742	      0.00000000	    -14.86030015	     -8.12301023	     -8.36079658
      5.24000000	      2.92754085	     -4.88851597	    189.75610731	      1.12936297	      0.97708608	     -0.05729476	     34.23512696	     -6.52753514	     -3.46074168	     -8.59176120	     17.74406511	      4.22764204	      0.00000000	    -10.67716767	      7.78045590	     10.19598484	    -18.07943358	     20.53765360	     13.07083762	      0.00000000	    -14.84907251	     -8.06900790	     -8.50237244
      5.25000000	      2.92064436	     -4.81229891	    190.07251537	      1.11261236	      0.97492892	     -0.05730804	     34.04005957	     -6.34651901	     -3.67447950	     -9.71119759	     18.35957539	      5.49199199	      0.00000000	    -11.14770780	      7.48101315	     10.39805260	    -19.09764021	     20.19680147	     13.24294155	      0.00000000	    -14.84990744	     -7.83607407	     -8.58450499
      5.26000000	      2.89941058	     -4.76858989	    190.39800612	      1.09552633	      0.97279605	     -0.05704074	     33.70635068	     -6.19806768	     -3.73165897	    -11.10611322	     18.86467157	      6.77647154	      0.00000000	    -11.51346480	      7.21058833	     10.35713212	    -20.35659289	     20.04312949	     13.72201072	      0.00000000	    -14.82816829	     -7.79474085	     -8.71430177
